<mxfile host="app.diagrams.net" agent="Mozilla/5.0 (Windows NT 10.0; Win64; x64) AppleWebKit/537.36 (KHTML, like Gecko) Chrome/137.0.0.0 Safari/537.36" version="27.1.6">
  <diagram name="Página-1" id="e3umRrUHKhaPqrH1uW7i">
    <mxGraphModel grid="1" page="1" gridSize="10" guides="1" tooltips="1" connect="1" arrows="1" fold="1" pageScale="1" pageWidth="827" pageHeight="1169" math="0" shadow="0">
      <root>
        <mxCell id="0" />
        <mxCell id="1" parent="0" />
        <mxCell id="mtsksnj7Bq7EKNGEuvVy-12" style="edgeStyle=orthogonalEdgeStyle;rounded=0;orthogonalLoop=1;jettySize=auto;html=1;endArrow=none;startFill=0;dashed=1;" edge="1" parent="1" source="mtsksnj7Bq7EKNGEuvVy-57" target="mtsksnj7Bq7EKNGEuvVy-7">
          <mxGeometry relative="1" as="geometry" />
        </mxCell>
        <mxCell id="mtsksnj7Bq7EKNGEuvVy-4" value="Administrador" style="html=1;whiteSpace=wrap;" vertex="1" parent="1">
          <mxGeometry x="10" y="10" width="110" height="50" as="geometry" />
        </mxCell>
        <mxCell id="mtsksnj7Bq7EKNGEuvVy-5" value="Sistema&lt;span style=&quot;color: rgba(0, 0, 0, 0); font-family: monospace; font-size: 0px; text-align: start; text-wrap-mode: nowrap;&quot;&gt;%3CmxGraphModel%3E%3Croot%3E%3CmxCell%20id%3D%220%22%2F%3E%3CmxCell%20id%3D%221%22%20parent%3D%220%22%2F%3E%3CmxCell%20id%3D%222%22%20value%3D%22Usuario%22%20style%3D%22html%3D1%3BwhiteSpace%3Dwrap%3B%22%20vertex%3D%221%22%20parent%3D%221%22%3E%3CmxGeometry%20x%3D%2270%22%20y%3D%2240%22%20width%3D%22110%22%20height%3D%2250%22%20as%3D%22geometry%22%2F%3E%3C%2FmxCell%3E%3C%2Froot%3E%3C%2FmxGraphModel%3E&lt;/span&gt;" style="html=1;whiteSpace=wrap;" vertex="1" parent="1">
          <mxGeometry x="270" y="10" width="110" height="50" as="geometry" />
        </mxCell>
        <mxCell id="mtsksnj7Bq7EKNGEuvVy-10" style="edgeStyle=orthogonalEdgeStyle;rounded=0;orthogonalLoop=1;jettySize=auto;html=1;dashed=1;endArrow=none;startFill=0;" edge="1" parent="1" source="mtsksnj7Bq7EKNGEuvVy-51" target="mtsksnj7Bq7EKNGEuvVy-9">
          <mxGeometry relative="1" as="geometry" />
        </mxCell>
        <mxCell id="mtsksnj7Bq7EKNGEuvVy-6" value="Base de datos" style="html=1;whiteSpace=wrap;" vertex="1" parent="1">
          <mxGeometry x="520" y="10" width="110" height="50" as="geometry" />
        </mxCell>
        <mxCell id="mtsksnj7Bq7EKNGEuvVy-8" value="Sistema&lt;span style=&quot;color: rgba(0, 0, 0, 0); font-family: monospace; font-size: 0px; text-align: start; text-wrap-mode: nowrap;&quot;&gt;%3CmxGraphModel%3E%3Croot%3E%3CmxCell%20id%3D%220%22%2F%3E%3CmxCell%20id%3D%221%22%20parent%3D%220%22%2F%3E%3CmxCell%20id%3D%222%22%20value%3D%22Usuario%22%20style%3D%22html%3D1%3BwhiteSpace%3Dwrap%3B%22%20vertex%3D%221%22%20parent%3D%221%22%3E%3CmxGeometry%20x%3D%2270%22%20y%3D%2240%22%20width%3D%22110%22%20height%3D%2250%22%20as%3D%22geometry%22%2F%3E%3C%2FmxCell%3E%3C%2Froot%3E%3C%2FmxGraphModel%3E&lt;/span&gt;" style="html=1;whiteSpace=wrap;" vertex="1" parent="1">
          <mxGeometry x="269" y="590" width="110" height="50" as="geometry" />
        </mxCell>
        <mxCell id="mtsksnj7Bq7EKNGEuvVy-9" value="Base de datos" style="html=1;whiteSpace=wrap;" vertex="1" parent="1">
          <mxGeometry x="520" y="590" width="110" height="50" as="geometry" />
        </mxCell>
        <mxCell id="mtsksnj7Bq7EKNGEuvVy-22" value="1. Pulsar el apartado &quot;Administrar Eventos&quot;" style="html=1;verticalAlign=bottom;endArrow=block;labelBackgroundColor=none;fontFamily=Verdana;fontSize=11;elbow=vertical;entryX=0;entryY=0.25;entryDx=0;entryDy=0;" edge="1" parent="1" target="mtsksnj7Bq7EKNGEuvVy-42">
          <mxGeometry x="0.0016" relative="1" as="geometry">
            <mxPoint x="70" y="95" as="sourcePoint" />
            <mxPoint x="312" y="90.03" as="targetPoint" />
            <mxPoint as="offset" />
          </mxGeometry>
        </mxCell>
        <mxCell id="mtsksnj7Bq7EKNGEuvVy-23" value="4. Mostrar listado de eventos" style="html=1;verticalAlign=bottom;endArrow=open;labelBackgroundColor=none;fontFamily=Verdana;fontSize=11;edgeStyle=elbowEdgeStyle;elbow=vertical;" edge="1" parent="1">
          <mxGeometry x="0.0017" relative="1" as="geometry">
            <mxPoint x="315" y="190.14" as="sourcePoint" />
            <mxPoint x="70" y="190.14" as="targetPoint" />
            <mxPoint as="offset" />
          </mxGeometry>
        </mxCell>
        <mxCell id="mtsksnj7Bq7EKNGEuvVy-24" value="5. Pulsar el botón &quot;Editar estado de evento&quot;" style="html=1;verticalAlign=bottom;endArrow=block;labelBackgroundColor=none;fontFamily=Verdana;fontSize=11;edgeStyle=elbowEdgeStyle;elbow=vertical;" edge="1" parent="1">
          <mxGeometry relative="1" as="geometry">
            <mxPoint x="70" y="255" as="sourcePoint" />
            <mxPoint x="315" y="255" as="targetPoint" />
          </mxGeometry>
        </mxCell>
        <mxCell id="mtsksnj7Bq7EKNGEuvVy-25" value="6. Mostrar formulario edición de estado" style="html=1;verticalAlign=bottom;endArrow=open;labelBackgroundColor=none;fontFamily=Verdana;fontSize=11;elbow=vertical;entryX=1;entryY=0.25;entryDx=0;entryDy=0;" edge="1" parent="1" target="mtsksnj7Bq7EKNGEuvVy-47">
          <mxGeometry x="-0.0014" relative="1" as="geometry">
            <mxPoint x="320" y="327" as="sourcePoint" />
            <mxPoint x="77" y="304.5" as="targetPoint" />
            <mxPoint as="offset" />
          </mxGeometry>
        </mxCell>
        <mxCell id="mtsksnj7Bq7EKNGEuvVy-26" value="5. Seleccionar estado" style="html=1;verticalAlign=bottom;endArrow=block;labelBackgroundColor=none;fontFamily=Verdana;fontSize=11;elbow=vertical;entryX=0;entryY=0.25;entryDx=0;entryDy=0;" edge="1" parent="1" target="sEiHYhfo21vTT5OKBthb-8">
          <mxGeometry relative="1" as="geometry">
            <mxPoint x="67" y="375" as="sourcePoint" />
            <mxPoint x="312" y="379.92" as="targetPoint" />
          </mxGeometry>
        </mxCell>
        <mxCell id="mtsksnj7Bq7EKNGEuvVy-27" value="6. Pulsar el botón &quot;Cambiar&quot;" style="html=1;verticalAlign=bottom;endArrow=block;labelBackgroundColor=none;fontFamily=Verdana;fontSize=11;elbow=vertical;entryX=0;entryY=0.25;entryDx=0;entryDy=0;" edge="1" parent="1" target="mtsksnj7Bq7EKNGEuvVy-49">
          <mxGeometry relative="1" as="geometry">
            <mxPoint x="70" y="425" as="sourcePoint" />
            <mxPoint x="312" y="429.41999999999996" as="targetPoint" />
          </mxGeometry>
        </mxCell>
        <mxCell id="mtsksnj7Bq7EKNGEuvVy-28" value="7. Guardar los datos" style="html=1;verticalAlign=bottom;endArrow=block;labelBackgroundColor=none;fontFamily=Verdana;fontSize=11;elbow=vertical;entryX=0;entryY=0.25;entryDx=0;entryDy=0;" edge="1" parent="1" target="mtsksnj7Bq7EKNGEuvVy-51">
          <mxGeometry relative="1" as="geometry">
            <mxPoint x="326" y="465" as="sourcePoint" />
            <mxPoint x="566" y="460.13" as="targetPoint" />
          </mxGeometry>
        </mxCell>
        <mxCell id="mtsksnj7Bq7EKNGEuvVy-29" value="8. Confirmación de guardado" style="html=1;verticalAlign=bottom;endArrow=open;labelBackgroundColor=none;fontFamily=Verdana;fontSize=11;edgeStyle=elbowEdgeStyle;elbow=vertical;" edge="1" parent="1">
          <mxGeometry relative="1" as="geometry">
            <mxPoint x="565" y="510.33" as="sourcePoint" />
            <mxPoint x="330" y="510.33" as="targetPoint" />
          </mxGeometry>
        </mxCell>
        <mxCell id="mtsksnj7Bq7EKNGEuvVy-31" value="" style="html=1;verticalAlign=bottom;endArrow=open;dashed=1;labelBackgroundColor=none;fontFamily=Verdana;fontSize=11;edgeStyle=elbowEdgeStyle;elbow=vertical;" edge="1" parent="1">
          <mxGeometry x="0.0204" relative="1" as="geometry">
            <mxPoint x="315" y="550" as="sourcePoint" />
            <mxPoint x="70" y="550" as="targetPoint" />
            <mxPoint as="offset" />
          </mxGeometry>
        </mxCell>
        <mxCell id="mtsksnj7Bq7EKNGEuvVy-35" value="" style="endArrow=none;dashed=1;html=1;labelBackgroundColor=none;fontFamily=Verdana;fontSize=11;strokeColor=#d6b656;" edge="1" parent="1" source="mtsksnj7Bq7EKNGEuvVy-7">
          <mxGeometry width="50" height="50" relative="1" as="geometry">
            <mxPoint x="65" y="690.33" as="sourcePoint" />
            <mxPoint x="70" y="690.33" as="targetPoint" />
          </mxGeometry>
        </mxCell>
        <mxCell id="mtsksnj7Bq7EKNGEuvVy-36" value="" style="endArrow=none;dashed=1;html=1;labelBackgroundColor=none;fontFamily=Verdana;fontSize=11;strokeColor=#d6b656;" edge="1" parent="1" target="mtsksnj7Bq7EKNGEuvVy-7">
          <mxGeometry width="50" height="50" relative="1" as="geometry">
            <mxPoint x="65" y="690.33" as="sourcePoint" />
            <mxPoint x="70" y="690.33" as="targetPoint" />
          </mxGeometry>
        </mxCell>
        <mxCell id="mtsksnj7Bq7EKNGEuvVy-7" value="Administrador" style="html=1;whiteSpace=wrap;" vertex="1" parent="1">
          <mxGeometry x="10" y="590" width="110" height="50" as="geometry" />
        </mxCell>
        <mxCell id="mtsksnj7Bq7EKNGEuvVy-38" value="" style="edgeStyle=orthogonalEdgeStyle;rounded=0;orthogonalLoop=1;jettySize=auto;html=1;dashed=1;endArrow=none;startFill=0;entryX=0.25;entryY=0;entryDx=0;entryDy=0;" edge="1" parent="1" source="sEiHYhfo21vTT5OKBthb-5" target="mtsksnj7Bq7EKNGEuvVy-45">
          <mxGeometry relative="1" as="geometry">
            <mxPoint x="325" y="60" as="sourcePoint" />
            <mxPoint x="325" y="130" as="targetPoint" />
          </mxGeometry>
        </mxCell>
        <mxCell id="mtsksnj7Bq7EKNGEuvVy-44" value="" style="edgeStyle=orthogonalEdgeStyle;rounded=0;orthogonalLoop=1;jettySize=auto;html=1;endArrow=none;startFill=0;dashed=1;" edge="1" parent="1" source="mtsksnj7Bq7EKNGEuvVy-4" target="mtsksnj7Bq7EKNGEuvVy-43">
          <mxGeometry relative="1" as="geometry">
            <mxPoint x="65" y="60" as="sourcePoint" />
            <mxPoint x="65" y="460" as="targetPoint" />
          </mxGeometry>
        </mxCell>
        <mxCell id="mtsksnj7Bq7EKNGEuvVy-43" value="" style="rounded=0;whiteSpace=wrap;html=1;" vertex="1" parent="1">
          <mxGeometry x="63" y="190.14" width="4" height="25" as="geometry" />
        </mxCell>
        <mxCell id="mtsksnj7Bq7EKNGEuvVy-45" value="" style="rounded=0;whiteSpace=wrap;html=1;" vertex="1" parent="1">
          <mxGeometry x="323" y="255" width="4" height="20" as="geometry" />
        </mxCell>
        <mxCell id="mtsksnj7Bq7EKNGEuvVy-48" value="" style="edgeStyle=orthogonalEdgeStyle;rounded=0;orthogonalLoop=1;jettySize=auto;html=1;endArrow=none;startFill=0;dashed=1;" edge="1" parent="1" source="mtsksnj7Bq7EKNGEuvVy-43" target="mtsksnj7Bq7EKNGEuvVy-47">
          <mxGeometry relative="1" as="geometry">
            <mxPoint x="65" y="255" as="sourcePoint" />
            <mxPoint x="65" y="535" as="targetPoint" />
          </mxGeometry>
        </mxCell>
        <mxCell id="mtsksnj7Bq7EKNGEuvVy-47" value="" style="rounded=0;whiteSpace=wrap;html=1;" vertex="1" parent="1">
          <mxGeometry x="63" y="320" width="4" height="20" as="geometry" />
        </mxCell>
        <mxCell id="mtsksnj7Bq7EKNGEuvVy-50" value="" style="edgeStyle=orthogonalEdgeStyle;rounded=0;orthogonalLoop=1;jettySize=auto;html=1;dashed=1;endArrow=none;startFill=0;" edge="1" parent="1" source="sEiHYhfo21vTT5OKBthb-8" target="mtsksnj7Bq7EKNGEuvVy-49">
          <mxGeometry relative="1" as="geometry">
            <mxPoint x="325" y="275" as="sourcePoint" />
            <mxPoint x="325" y="535" as="targetPoint" />
          </mxGeometry>
        </mxCell>
        <mxCell id="mtsksnj7Bq7EKNGEuvVy-49" value="" style="rounded=0;whiteSpace=wrap;html=1;" vertex="1" parent="1">
          <mxGeometry x="323" y="420" width="4" height="19.67" as="geometry" />
        </mxCell>
        <mxCell id="mtsksnj7Bq7EKNGEuvVy-52" value="" style="edgeStyle=orthogonalEdgeStyle;rounded=0;orthogonalLoop=1;jettySize=auto;html=1;dashed=1;endArrow=none;startFill=0;" edge="1" parent="1" source="sEiHYhfo21vTT5OKBthb-3" target="mtsksnj7Bq7EKNGEuvVy-51">
          <mxGeometry relative="1" as="geometry">
            <mxPoint x="575" y="60" as="sourcePoint" />
            <mxPoint x="575" y="460" as="targetPoint" />
          </mxGeometry>
        </mxCell>
        <mxCell id="mtsksnj7Bq7EKNGEuvVy-51" value="" style="rounded=0;whiteSpace=wrap;html=1;" vertex="1" parent="1">
          <mxGeometry x="573" y="460" width="4" height="20" as="geometry" />
        </mxCell>
        <mxCell id="mtsksnj7Bq7EKNGEuvVy-54" value="" style="edgeStyle=orthogonalEdgeStyle;rounded=0;orthogonalLoop=1;jettySize=auto;html=1;dashed=1;endArrow=none;startFill=0;" edge="1" parent="1" source="mtsksnj7Bq7EKNGEuvVy-49" target="mtsksnj7Bq7EKNGEuvVy-53">
          <mxGeometry relative="1" as="geometry">
            <mxPoint x="325" y="490.33" as="sourcePoint" />
            <mxPoint x="325" y="660.33" as="targetPoint" />
          </mxGeometry>
        </mxCell>
        <mxCell id="mtsksnj7Bq7EKNGEuvVy-53" value="" style="rounded=0;whiteSpace=wrap;html=1;" vertex="1" parent="1">
          <mxGeometry x="323" y="510.33" width="4" height="19.67" as="geometry" />
        </mxCell>
        <mxCell id="mtsksnj7Bq7EKNGEuvVy-56" value="" style="edgeStyle=orthogonalEdgeStyle;rounded=0;orthogonalLoop=1;jettySize=auto;html=1;dashed=1;endArrow=none;startFill=0;entryX=0.5;entryY=0;entryDx=0;entryDy=0;" edge="1" parent="1" source="mtsksnj7Bq7EKNGEuvVy-53" target="mtsksnj7Bq7EKNGEuvVy-8">
          <mxGeometry relative="1" as="geometry">
            <mxPoint x="325" y="540.33" as="sourcePoint" />
            <mxPoint x="325" y="560.33" as="targetPoint" />
          </mxGeometry>
        </mxCell>
        <mxCell id="mtsksnj7Bq7EKNGEuvVy-58" value="" style="edgeStyle=orthogonalEdgeStyle;rounded=0;orthogonalLoop=1;jettySize=auto;html=1;endArrow=none;startFill=0;dashed=1;exitX=0.25;exitY=1;exitDx=0;exitDy=0;" edge="1" parent="1" source="mtsksnj7Bq7EKNGEuvVy-47" target="mtsksnj7Bq7EKNGEuvVy-57">
          <mxGeometry relative="1" as="geometry">
            <mxPoint x="65.00000000000011" y="430.33" as="sourcePoint" />
            <mxPoint x="65" y="660.33" as="targetPoint" />
            <Array as="points">
              <mxPoint x="65" y="340" />
            </Array>
          </mxGeometry>
        </mxCell>
        <mxCell id="mtsksnj7Bq7EKNGEuvVy-57" value="" style="rounded=0;whiteSpace=wrap;html=1;" vertex="1" parent="1">
          <mxGeometry x="63" y="540" width="4" height="20" as="geometry" />
        </mxCell>
        <mxCell id="sEiHYhfo21vTT5OKBthb-1" value="" style="edgeStyle=orthogonalEdgeStyle;rounded=0;orthogonalLoop=1;jettySize=auto;html=1;dashed=1;endArrow=none;startFill=0;" edge="1" parent="1" source="mtsksnj7Bq7EKNGEuvVy-5" target="mtsksnj7Bq7EKNGEuvVy-42">
          <mxGeometry relative="1" as="geometry">
            <mxPoint x="325" y="60" as="sourcePoint" />
            <mxPoint x="325" y="130" as="targetPoint" />
          </mxGeometry>
        </mxCell>
        <mxCell id="mtsksnj7Bq7EKNGEuvVy-42" value="" style="rounded=0;whiteSpace=wrap;html=1;" vertex="1" parent="1">
          <mxGeometry x="322" y="90" width="4" height="20" as="geometry" />
        </mxCell>
        <mxCell id="sEiHYhfo21vTT5OKBthb-2" value="2. Solicitar lista de eventos" style="html=1;verticalAlign=bottom;endArrow=block;labelBackgroundColor=none;fontFamily=Verdana;fontSize=11;elbow=vertical;entryX=0;entryY=0.25;entryDx=0;entryDy=0;" edge="1" parent="1" target="sEiHYhfo21vTT5OKBthb-3">
          <mxGeometry x="0.0612" relative="1" as="geometry">
            <mxPoint x="323" y="125" as="sourcePoint" />
            <mxPoint x="571.02" y="129.71" as="targetPoint" />
            <mxPoint as="offset" />
          </mxGeometry>
        </mxCell>
        <mxCell id="sEiHYhfo21vTT5OKBthb-4" value="3. Devolver lista de eventos" style="html=1;verticalAlign=bottom;endArrow=open;labelBackgroundColor=none;fontFamily=Verdana;fontSize=11;edgeStyle=elbowEdgeStyle;elbow=vertical;entryX=1;entryY=0.25;entryDx=0;entryDy=0;" edge="1" parent="1" target="sEiHYhfo21vTT5OKBthb-5">
          <mxGeometry x="0.0261" relative="1" as="geometry">
            <mxPoint x="570" y="165" as="sourcePoint" />
            <mxPoint x="336.48" y="160" as="targetPoint" />
            <Array as="points">
              <mxPoint x="452" y="165" />
            </Array>
            <mxPoint as="offset" />
          </mxGeometry>
        </mxCell>
        <mxCell id="sEiHYhfo21vTT5OKBthb-6" value="" style="edgeStyle=orthogonalEdgeStyle;rounded=0;orthogonalLoop=1;jettySize=auto;html=1;dashed=1;endArrow=none;startFill=0;" edge="1" parent="1" source="mtsksnj7Bq7EKNGEuvVy-6" target="sEiHYhfo21vTT5OKBthb-3">
          <mxGeometry relative="1" as="geometry">
            <mxPoint x="575" y="60" as="sourcePoint" />
            <mxPoint x="575" y="365" as="targetPoint" />
          </mxGeometry>
        </mxCell>
        <mxCell id="sEiHYhfo21vTT5OKBthb-3" value="" style="rounded=0;whiteSpace=wrap;html=1;" vertex="1" parent="1">
          <mxGeometry x="572" y="120" width="5" height="20" as="geometry" />
        </mxCell>
        <mxCell id="sEiHYhfo21vTT5OKBthb-7" value="" style="edgeStyle=orthogonalEdgeStyle;rounded=0;orthogonalLoop=1;jettySize=auto;html=1;dashed=1;endArrow=none;startFill=0;entryX=0.25;entryY=0;entryDx=0;entryDy=0;" edge="1" parent="1" source="mtsksnj7Bq7EKNGEuvVy-42" target="sEiHYhfo21vTT5OKBthb-5">
          <mxGeometry relative="1" as="geometry">
            <mxPoint x="325" y="110" as="sourcePoint" />
            <mxPoint x="324" y="255" as="targetPoint" />
          </mxGeometry>
        </mxCell>
        <mxCell id="sEiHYhfo21vTT5OKBthb-5" value="" style="rounded=0;whiteSpace=wrap;html=1;" vertex="1" parent="1">
          <mxGeometry x="322" y="160" width="5" height="20" as="geometry" />
        </mxCell>
        <mxCell id="sEiHYhfo21vTT5OKBthb-9" value="" style="edgeStyle=orthogonalEdgeStyle;rounded=0;orthogonalLoop=1;jettySize=auto;html=1;dashed=1;endArrow=none;startFill=0;" edge="1" parent="1" source="mtsksnj7Bq7EKNGEuvVy-45" target="sEiHYhfo21vTT5OKBthb-8">
          <mxGeometry relative="1" as="geometry">
            <mxPoint x="325" y="275" as="sourcePoint" />
            <mxPoint x="325" y="460" as="targetPoint" />
          </mxGeometry>
        </mxCell>
        <mxCell id="sEiHYhfo21vTT5OKBthb-8" value="" style="rounded=0;whiteSpace=wrap;html=1;" vertex="1" parent="1">
          <mxGeometry x="323" y="370" width="4" height="20" as="geometry" />
        </mxCell>
        <mxCell id="sEiHYhfo21vTT5OKBthb-11" value="&lt;span style=&quot;font-family: Verdana; font-size: 11px; text-wrap-mode: nowrap;&quot;&gt;9. Notificación de éxito:&amp;nbsp;&lt;/span&gt;&lt;div&gt;&lt;span style=&quot;font-family: Verdana; font-size: 11px; text-wrap-mode: nowrap;&quot;&gt;Estado de evento editado&amp;nbsp;&lt;/span&gt;&lt;/div&gt;&lt;div&gt;&lt;span style=&quot;font-family: Verdana; font-size: 11px; text-wrap-mode: nowrap;&quot;&gt;correctamente&lt;/span&gt;&lt;/div&gt;" style="text;html=1;align=center;verticalAlign=middle;whiteSpace=wrap;rounded=0;" vertex="1" parent="1">
          <mxGeometry x="160" y="510.33" width="60" height="30" as="geometry" />
        </mxCell>
      </root>
    </mxGraphModel>
  </diagram>
</mxfile>
